<?xml version="1.0" encoding="UTF-8" standalone="no"?>
<!DOCTYPE svg PUBLIC "-//W3C//DTD SVG 1.1//EN"
 "http://www.w3.org/Graphics/SVG/1.1/DTD/svg11.dtd">
<!-- Generated by graphviz version 2.38.0 (20140413.2041)
 -->
<!-- Title: %3 Pages: 1 -->
<svg width="321pt" height="674pt"
 viewBox="0.00 0.00 320.85 674.09" xmlns="http://www.w3.org/2000/svg" xmlns:xlink="http://www.w3.org/1999/xlink">
<g id="graph0" class="graph" transform="scale(1 1) rotate(0) translate(129.569 333.974)">
<title>%3</title>
<polygon fill="white" stroke="none" points="-129.569,340.114 -129.569,-333.974 191.28,-333.974 191.28,340.114 -129.569,340.114"/>
<!-- 0 -->
<g id="node1" class="node"><title>0</title>
<ellipse fill="red" stroke="black" cx="107.427" cy="-72.4382" rx="2.5" ry="2.5"/>
</g>
<!-- 2 -->
<g id="node3" class="node"><title>2</title>
<ellipse fill="red" stroke="black" cx="146.266" cy="-104.477" rx="7" ry="7"/>
</g>
<!-- 0&#45;&gt;2 -->
<g id="edge1" class="edge"><title>0&#45;&gt;2</title>
<path fill="none" stroke="black" d="M109.515,-74.1608C115.376,-78.9959 132.121,-92.809 140.84,-100.001"/>
</g>
<!-- 1 -->
<g id="node2" class="node"><title>1</title>
<ellipse fill="red" stroke="black" cx="178.844" cy="-65.9283" rx="2.5" ry="2.5"/>
</g>
<!-- 1&#45;&gt;2 -->
<g id="edge2" class="edge"><title>1&#45;&gt;2</title>
<path fill="none" stroke="black" d="M177.092,-68.0008C172.176,-73.8185 158.131,-90.4381 150.817,-99.092"/>
</g>
<!-- 4 -->
<g id="node5" class="node"><title>4</title>
<ellipse fill="red" stroke="black" cx="112.683" cy="-145.172" rx="4.5" ry="4.5"/>
</g>
<!-- 2&#45;&gt;4 -->
<g id="edge3" class="edge"><title>2&#45;&gt;4</title>
<path fill="none" stroke="black" d="M141.597,-110.136C134.676,-118.522 121.872,-134.037 115.903,-141.27"/>
</g>
<!-- 7 -->
<g id="node8" class="node"><title>7</title>
<ellipse fill="red" stroke="black" cx="184.78" cy="-136.984" rx="2.5" ry="2.5"/>
</g>
<!-- 2&#45;&gt;7 -->
<g id="edge4" class="edge"><title>2&#45;&gt;7</title>
<path fill="none" stroke="black" d="M151.621,-108.997C160.22,-116.255 176.736,-130.195 182.627,-135.167"/>
</g>
<!-- 3 -->
<g id="node4" class="node"><title>3</title>
<path fill="#ff6347" stroke="black" stroke-width="0.5" d="M58.843,-43.1482C58.843,-43.1482 65.343,-43.1482 65.343,-43.1482 65.343,-43.5131 65.3123,-43.8773 65.2512,-44.237 65.19,-44.5967 65.0988,-44.9506 64.9782,-45.295 64.8577,-45.6394 64.7084,-45.973 64.532,-46.2924 64.3555,-46.6117 64.1524,-46.9156 63.9249,-47.2009 63.6974,-47.4862 63.4463,-47.7518 63.1743,-47.9949 62.9022,-48.238 62.6102,-48.4578 62.3012,-48.6519 61.9923,-48.846 61.6675,-49.0138 61.3304,-49.1534 60.9934,-49.293 60.6451,-49.404 60.2894,-49.4852 59.9337,-49.5664 59.5718,-49.6175 59.2075,-49.638 58.8432,-49.6584 58.4778,-49.6482 58.1152,-49.6073 57.7527,-49.5665 57.3942,-49.4952 57.0436,-49.3942 56.693,-49.2932 56.3515,-49.1628 56.0228,-49.0045 55.694,-48.8462 55.3792,-48.6605 55.0816,-48.4494 54.7841,-48.2382 54.5048,-48.0024 54.2468,-47.7444 53.9888,-47.4864 53.753,-47.2071 53.5419,-46.9096 53.3307,-46.612 53.145,-46.2972 52.9867,-45.9684 52.8284,-45.6397 52.698,-45.2982 52.597,-44.9476 52.496,-44.597 52.4247,-44.2385 52.3839,-43.876 52.343,-43.5134 52.3328,-43.148 52.3532,-42.7837 52.3737,-42.4195 52.4248,-42.0575 52.506,-41.7018 52.5872,-41.3461 52.6982,-40.9979 52.8378,-40.6608 52.9774,-40.3237 53.1452,-39.9989 53.3393,-39.69 53.5334,-39.3811 53.7532,-39.089 53.9963,-38.817 54.2395,-38.5449 54.5051,-38.2938 54.7903,-38.0663 55.0756,-37.8388 55.3795,-37.6357 55.6988,-37.4593 56.0182,-37.2828 56.3518,-37.1335 56.6962,-37.013 57.0406,-36.8925 57.3945,-36.8012 57.7542,-36.74 58.1139,-36.6789 58.4781,-36.6482 58.843,-36.6482 59.2079,-36.6482 59.5721,-36.6789 59.9318,-36.74 60.2915,-36.8012 60.6454,-36.8925 60.9898,-37.013 61.3342,-37.1335 61.6678,-37.2828 61.9872,-37.4593 62.3065,-37.6357 62.6104,-37.8388 62.8957,-38.0663 62.8957,-38.0663 58.843,-43.1482 58.843,-43.1482"/>
<path fill="red" stroke="black" stroke-width="0.5" d="M58.843,-43.1482C58.843,-43.1482 62.8957,-38.0663 62.8957,-38.0663 63.2762,-38.3698 63.6215,-38.715 63.9249,-39.0955 64.2284,-39.476 64.4881,-39.8895 64.6993,-40.328 64.9105,-40.7665 65.0717,-41.2273 65.18,-41.7018 65.2883,-42.1763 65.343,-42.6615 65.343,-43.1482 65.343,-43.1482 58.843,-43.1482 58.843,-43.1482"/>
<ellipse fill="none" stroke="black" cx="58.843" cy="-43.1482" rx="6.5" ry="6.5"/>
</g>
<!-- 5 -->
<g id="node6" class="node"><title>5</title>
<path fill="red" stroke="black" stroke-width="0.5" d="M84.2774,-2.35942C84.2774,-2.35942 89.2774,-2.35942 89.2774,-2.35942 89.2774,-2.60496 89.2594,-2.85018 89.2233,-3.09307 89.1873,-3.33596 89.1334,-3.57587 89.0621,-3.81084 88.9909,-4.04581 88.9024,-4.27522 88.7974,-4.49719 88.6924,-4.71916 88.5712,-4.9331 88.4348,-5.13727 88.2984,-5.34143 88.1471,-5.53527 87.9822,-5.71721 87.8173,-5.89915 87.6392,-6.0687 87.4494,-6.22447 87.2596,-6.38024 87.0586,-6.52182 86.848,-6.64806 86.6373,-6.7743 86.4177,-6.88485 86.1909,-6.97881 85.964,-7.07278 85.7305,-7.14991 85.4923,-7.20957 85.2542,-7.26924 85.0119,-7.31127 84.7675,-7.33534 84.5232,-7.35941 84.2774,-7.36544 84.0321,-7.35339 83.7869,-7.34135 83.5428,-7.31125 83.302,-7.26334 83.0612,-7.21544 82.8242,-7.14986 82.593,-7.06714 82.3618,-6.98441 82.137,-6.88477 81.9205,-6.76902 81.7039,-6.65327 81.4962,-6.52173 81.2989,-6.37545 81.1017,-6.22918 80.9155,-6.06858 80.7419,-5.89495 80.5683,-5.72132 80.4077,-5.53514 80.2614,-5.33791 80.1151,-5.14069 79.9836,-4.93295 79.8678,-4.7164 79.7521,-4.49985 79.6524,-4.27506 79.5697,-4.04387 79.487,-3.81267 79.4214,-3.5757 79.3735,-3.33487 79.3256,-3.09404 79.2955,-2.85001 79.2835,-2.60476 79.2714,-2.3595 79.2775,-2.1137 79.3015,-1.86933 79.3256,-1.62497 79.3676,-1.3827 79.4273,-1.14452 79.487,-0.906327 79.5641,-0.672856 79.658,-0.446 79.752,-0.219143 79.8626,0.000483658 79.9888,0.211097 80.115,0.42171 80.2566,0.622739 80.4124,0.81255 80.5682,1.00236 80.7377,1.18044 80.9196,1.34534 81.1016,1.51024 81.2954,1.66151 81.4996,1.79793 81.7038,1.93435 81.9177,2.05554 82.1397,2.16053 82.3616,2.26551 82.591,2.35401 82.826,2.42528 83.061,2.49656 83.3009,2.55044 83.5438,2.58647 83.7867,2.6225 84.0319,2.64058 84.2774,2.64058 84.2774,2.64058 84.2774,-2.35942 84.2774,-2.35942"/>
<path fill="#ff6347" stroke="black" stroke-width="0.5" d="M84.2774,-2.35942C84.2774,-2.35942 84.2774,2.64058 84.2774,2.64058 84.605,2.64058 84.9317,2.6084 85.2529,2.54451 85.5741,2.48062 85.8883,2.38531 86.1909,2.25998 86.4934,2.13465 86.783,1.97989 87.0553,1.79793 87.3276,1.61598 87.5814,1.4077 87.813,1.17612 88.0446,0.944531 88.2528,0.690751 88.4348,0.418434 88.6167,0.146118 88.7715,-0.143418 88.8968,-0.446 89.0222,-0.748581 89.1175,-1.06275 89.1814,-1.38397 89.2453,-1.70518 89.2774,-2.0319 89.2774,-2.35942 89.2774,-2.35942 84.2774,-2.35942 84.2774,-2.35942"/>
<ellipse fill="none" stroke="black" cx="84.2774" cy="-2.35942" rx="5" ry="5"/>
</g>
<!-- 3&#45;&gt;5 -->
<g id="edge5" class="edge"><title>3&#45;&gt;5</title>
<path fill="none" stroke="black" d="M62.3796,-37.4767C67.5119,-29.2461 76.9158,-14.1652 81.5495,-6.73421"/>
</g>
<!-- 14 -->
<g id="node15" class="node"><title>14</title>
<ellipse fill="#ff6347" stroke="black" cx="44.4847" cy="-86.2176" rx="2.5" ry="2.5"/>
</g>
<!-- 3&#45;&gt;14 -->
<g id="edge6" class="edge"><title>3&#45;&gt;14</title>
<path fill="none" stroke="black" d="M56.7244,-49.5032C53.5417,-59.0502 47.6591,-76.6956 45.4006,-83.4702"/>
</g>
<!-- 11 -->
<g id="node12" class="node"><title>11</title>
<ellipse fill="#ff6347" stroke="black" cx="96.3949" cy="39.7252" rx="2.5" ry="2.5"/>
</g>
<!-- 5&#45;&gt;11 -->
<g id="edge7" class="edge"><title>5&#45;&gt;11</title>
<path fill="none" stroke="black" d="M85.6675,2.46822C88.2535,11.4498 93.719,30.4318 95.6776,37.2342"/>
</g>
<!-- 6 -->
<g id="node7" class="node"><title>6</title>
<ellipse fill="red" stroke="black" cx="-34.3388" cy="333.614" rx="2.5" ry="2.5"/>
</g>
<!-- anon_6_8_0 -->
<g id="node20" class="node"><title>anon_6_8_0</title>
<ellipse fill="white" stroke="black" cx="-14.7995" cy="298.544" rx="1" ry="1"/>
</g>
<!-- 6&#45;&gt;anon_6_8_0 -->
<g id="edge8" class="edge"><title>6&#45;&gt;anon_6_8_0</title>
<path fill="none" stroke="black" d="M-33.0567,331.313C-30.0257,325.872 -22.3453,312.087 -17.9727,304.24"/>
<polygon fill="black" stroke="black" points="-19.368,303.148 -15.4057,299.632 -16.3105,304.852 -19.368,303.148"/>
<text text-anchor="middle" x="-45.1368" y="311.503" font-family="monospace" font-size="14.00">V402L</text>
</g>
<!-- 8 -->
<g id="node9" class="node"><title>8</title>
<path fill="#ff6347" stroke="black" stroke-width="0.5" d="M14.0191,-185.61C14.0191,-185.61 23.5191,-185.61 23.5191,-185.61 23.5191,-185.965 23.4992,-186.32 23.4594,-186.673 23.4196,-187.027 23.36,-187.377 23.2809,-187.724 23.2018,-188.07 23.1034,-188.412 22.986,-188.747 22.8686,-189.083 22.7325,-189.412 22.5783,-189.732 22.4241,-190.052 22.2521,-190.363 22.063,-190.664 21.8739,-190.965 21.6681,-191.255 21.4465,-191.533 21.2249,-191.811 20.9879,-192.076 20.7366,-192.327 20.4853,-192.579 20.2201,-192.816 19.9423,-193.037 19.6644,-193.259 19.3743,-193.465 19.0734,-193.654 18.7725,-193.843 18.4612,-194.015 18.141,-194.169 17.8208,-194.323 17.4922,-194.459 17.1568,-194.577 16.8213,-194.694 16.4795,-194.793 16.1331,-194.872 15.7866,-194.951 15.4359,-195.01 15.0828,-195.05 14.7296,-195.09 14.3745,-195.11 14.0191,-195.11 13.6637,-195.11 13.3086,-195.09 12.9554,-195.05 12.6023,-195.01 12.2516,-194.951 11.9052,-194.872 11.9052,-194.872 14.0191,-185.61 14.0191,-185.61"/>
<path fill="darksalmon" stroke="black" stroke-width="0.5" d="M14.0191,-185.61C14.0191,-185.61 11.9052,-194.872 11.9052,-194.872 11.472,-194.773 11.0463,-194.644 10.6312,-194.485 10.2161,-194.327 9.81264,-194.139 9.42377,-193.924 9.03491,-193.71 8.6616,-193.468 8.30659,-193.2 7.95159,-192.933 7.61576,-192.642 7.30159,-192.327 6.98742,-192.013 6.69567,-191.677 6.4285,-191.322 6.16134,-190.967 5.9194,-190.594 5.70448,-190.205 5.48956,-189.816 5.30219,-189.413 5.14374,-188.998 4.98529,-188.583 4.85616,-188.157 4.75729,-187.724 4.65842,-187.291 4.59006,-186.851 4.55272,-186.408 4.51538,-185.966 4.50914,-185.521 4.53405,-185.077 4.55896,-184.634 4.61496,-184.192 4.70164,-183.756 4.78832,-183.321 4.90547,-182.892 5.05221,-182.472 5.19896,-182.053 5.37494,-181.644 5.57887,-181.249 5.7828,-180.855 6.01417,-180.475 6.27128,-180.112 6.52838,-179.75 6.81059,-179.406 7.11583,-179.083 7.42107,-178.76 7.74858,-178.459 8.09595,-178.182 8.44332,-177.905 8.8097,-177.653 9.19239,-177.427 9.57508,-177.202 9.97313,-177.003 10.3836,-176.833 10.7941,-176.663 11.216,-176.522 11.6462,-176.411 12.0765,-176.3 12.5139,-176.219 12.9554,-176.17 13.397,-176.12 13.8414,-176.101 14.2855,-176.114 14.7297,-176.126 15.1724,-176.17 15.6104,-176.244 16.0484,-176.318 16.4807,-176.424 16.904,-176.558 17.3274,-176.693 17.7407,-176.858 18.141,-177.051 18.5413,-177.243 18.9276,-177.464 19.297,-177.711 19.6664,-177.958 20.0181,-178.23 20.3494,-178.526 20.6807,-178.822 20.9908,-179.141 21.2775,-179.481 21.5641,-179.82 21.8266,-180.179 22.063,-180.556 22.2994,-180.932 22.5091,-181.324 22.6905,-181.73 22.872,-182.135 23.0248,-182.553 23.1478,-182.98 23.2708,-183.407 23.3637,-183.842 23.4258,-184.282 23.4879,-184.722 23.5191,-185.166 23.5191,-185.61 23.5191,-185.61 14.0191,-185.61 14.0191,-185.61"/>
<ellipse fill="none" stroke="black" cx="14.0191" cy="-185.61" rx="9.5" ry="9.5"/>
</g>
<!-- 9 -->
<g id="node10" class="node"><title>9</title>
<ellipse fill="#ff6347" stroke="black" cx="39.5729" cy="-153.193" rx="2.5" ry="2.5"/>
</g>
<!-- 8&#45;&gt;9 -->
<g id="edge21" class="edge"><title>8&#45;&gt;9</title>
<path fill="none" stroke="black" d="M19.9459,-178.091C25.8434,-170.61 34.5054,-159.621 38.0129,-155.172"/>
</g>
<!-- 10 -->
<g id="node11" class="node"><title>10</title>
<ellipse fill="#ff6347" stroke="black" cx="38.0082" cy="-224.094" rx="2.5" ry="2.5"/>
</g>
<!-- 8&#45;&gt;10 -->
<g id="edge22" class="edge"><title>8&#45;&gt;10</title>
<path fill="none" stroke="black" d="M19.1066,-193.771C24.718,-202.773 33.3889,-216.683 36.68,-221.963"/>
</g>
<!-- 18 -->
<g id="node19" class="node"><title>18</title>
<ellipse fill="darksalmon" stroke="black" cx="68.0959" cy="-167.247" rx="2.5" ry="2.5"/>
</g>
<!-- 8&#45;&gt;18 -->
<g id="edge31" class="edge"><title>8&#45;&gt;18</title>
<path fill="none" stroke="black" d="M23.4386,-182.411C36.0269,-178.137 57.64,-170.797 65.3024,-168.195"/>
</g>
<!-- anon_8_12_0 -->
<g id="node32" class="node"><title>anon_8_12_0</title>
<ellipse fill="white" stroke="black" cx="74.1689" cy="-205.468" rx="1" ry="1"/>
</g>
<!-- 8&#45;&gt;anon_8_12_0 -->
<g id="edge23" class="edge"><title>8&#45;&gt;anon_8_12_0</title>
<path fill="none" stroke="black" d="M23.1546,-188.626C37.8779,-193.487 65.8932,-202.736 72.667,-204.972"/>
</g>
<!-- anon_8_13_0 -->
<g id="node33" class="node"><title>anon_8_13_0</title>
<ellipse fill="white" stroke="black" cx="0.0335954" cy="-239.24" rx="1" ry="1"/>
</g>
<!-- 8&#45;&gt;anon_8_13_0 -->
<g id="edge25" class="edge"><title>8&#45;&gt;anon_8_13_0</title>
<path fill="none" stroke="black" d="M11.583,-194.951C8.07694,-208.396 1.86397,-232.221 0.365512,-237.967"/>
</g>
<!-- anon_8_16_0 -->
<g id="node35" class="node"><title>anon_8_16_0</title>
<ellipse fill="white" stroke="black" cx="-42.3754" cy="-193.364" rx="1" ry="1"/>
</g>
<!-- 8&#45;&gt;anon_8_16_0 -->
<g id="edge28" class="edge"><title>8&#45;&gt;anon_8_16_0</title>
<path fill="none" stroke="black" d="M4.45255,-186.925C-9.62585,-188.861 -34.9197,-192.339 -41.0232,-193.178"/>
</g>
<!-- 12 -->
<g id="node13" class="node"><title>12</title>
<ellipse fill="#ff6347" stroke="black" cx="117.017" cy="-218.018" rx="2.5" ry="2.5"/>
</g>
<!-- 13 -->
<g id="node14" class="node"><title>13</title>
<ellipse fill="#ff6347" stroke="black" cx="1.25703" cy="-325.474" rx="4.5" ry="4.5"/>
</g>
<!-- 15 -->
<g id="node16" class="node"><title>15</title>
<ellipse fill="#ff6347" stroke="black" cx="45" cy="39" rx="2.5" ry="2.5"/>
</g>
<!-- 16 -->
<g id="node17" class="node"><title>16</title>
<ellipse fill="#ffdab9" stroke="black" cx="-123.069" cy="-222.189" rx="2.5" ry="2.5"/>
</g>
<!-- 17 -->
<g id="node18" class="node"><title>17</title>
<ellipse fill="darksalmon" stroke="black" cx="45" cy="-3" rx="2.5" ry="2.5"/>
</g>
<!-- anon_6_8_1 -->
<g id="node21" class="node"><title>anon_6_8_1</title>
<ellipse fill="white" stroke="black" cx="-0.735176" cy="262.48" rx="1" ry="1"/>
</g>
<!-- anon_6_8_0&#45;&gt;anon_6_8_1 -->
<g id="edge9" class="edge"><title>anon_6_8_0&#45;&gt;anon_6_8_1</title>
<path fill="none" stroke="black" d="M-14.1951,296.994C-11.8396,290.955 -3.30098,269.06 -1.20312,263.68"/>
</g>
<!-- anon_6_8_2 -->
<g id="node22" class="node"><title>anon_6_8_2</title>
<ellipse fill="white" stroke="black" cx="6.99616" cy="224.596" rx="1" ry="1"/>
</g>
<!-- anon_6_8_1&#45;&gt;anon_6_8_2 -->
<g id="edge10" class="edge"><title>anon_6_8_1&#45;&gt;anon_6_8_2</title>
<path fill="none" stroke="black" d="M-0.47794,261.22C0.695876,255.468 5.53787,231.742 6.73003,225.9"/>
</g>
<!-- anon_6_8_3 -->
<g id="node23" class="node"><title>anon_6_8_3</title>
<ellipse fill="white" stroke="black" cx="10.9532" cy="186.18" rx="1" ry="1"/>
</g>
<!-- anon_6_8_2&#45;&gt;anon_6_8_3 -->
<g id="edge11" class="edge"><title>anon_6_8_2&#45;&gt;anon_6_8_3</title>
<path fill="none" stroke="black" d="M7.12781,223.318C7.7286,217.485 10.2068,193.426 10.817,187.503"/>
</g>
<!-- anon_6_8_4 -->
<g id="node24" class="node"><title>anon_6_8_4</title>
<ellipse fill="white" stroke="black" cx="15.7433" cy="147.789" rx="1" ry="1"/>
</g>
<!-- anon_6_8_3&#45;&gt;anon_6_8_4 -->
<g id="edge12" class="edge"><title>anon_6_8_3&#45;&gt;anon_6_8_4</title>
<path fill="none" stroke="black" d="M11.1126,184.903C11.8398,179.074 14.8398,155.031 15.5784,149.111"/>
</g>
<!-- anon_6_8_5 -->
<g id="node25" class="node"><title>anon_6_8_5</title>
<ellipse fill="white" stroke="black" cx="14.775" cy="109.034" rx="1" ry="1"/>
</g>
<!-- anon_6_8_4&#45;&gt;anon_6_8_5 -->
<g id="edge13" class="edge"><title>anon_6_8_4&#45;&gt;anon_6_8_5</title>
<path fill="none" stroke="black" d="M15.7111,146.5C15.5641,140.616 14.9576,116.344 14.8083,110.368"/>
</g>
<!-- anon_6_8_6 -->
<g id="node26" class="node"><title>anon_6_8_6</title>
<ellipse fill="white" stroke="black" cx="9.35231" cy="70.5548" rx="1" ry="1"/>
</g>
<!-- anon_6_8_5&#45;&gt;anon_6_8_6 -->
<g id="edge14" class="edge"><title>anon_6_8_5&#45;&gt;anon_6_8_6</title>
<path fill="none" stroke="black" d="M14.5946,107.754C13.7713,101.912 10.3751,77.8128 9.53897,71.8794"/>
</g>
<!-- anon_6_8_7 -->
<g id="node27" class="node"><title>anon_6_8_7</title>
<ellipse fill="white" stroke="black" cx="1.83698" cy="32.2677" rx="1" ry="1"/>
</g>
<!-- anon_6_8_6&#45;&gt;anon_6_8_7 -->
<g id="edge15" class="edge"><title>anon_6_8_6&#45;&gt;anon_6_8_7</title>
<path fill="none" stroke="black" d="M9.10226,69.2809C7.96124,63.468 3.25452,39.4895 2.09567,33.5857"/>
</g>
<!-- anon_6_8_8 -->
<g id="node28" class="node"><title>anon_6_8_8</title>
<ellipse fill="white" stroke="black" cx="-2.97777" cy="-6.66186" rx="1" ry="1"/>
</g>
<!-- anon_6_8_7&#45;&gt;anon_6_8_8 -->
<g id="edge16" class="edge"><title>anon_6_8_7&#45;&gt;anon_6_8_8</title>
<path fill="none" stroke="black" d="M1.67678,30.9725C0.94578,25.062 -2.06961,0.681055 -2.81203,-5.32182"/>
</g>
<!-- anon_6_8_9 -->
<g id="node29" class="node"><title>anon_6_8_9</title>
<ellipse fill="white" stroke="black" cx="-4.51141" cy="-46.2536" rx="1" ry="1"/>
</g>
<!-- anon_6_8_8&#45;&gt;anon_6_8_9 -->
<g id="edge17" class="edge"><title>anon_6_8_8&#45;&gt;anon_6_8_9</title>
<path fill="none" stroke="black" d="M-3.0288,-7.97915C-3.26164,-13.9902 -4.22213,-38.7858 -4.45861,-44.8908"/>
</g>
<!-- anon_6_8_10 -->
<g id="node30" class="node"><title>anon_6_8_10</title>
<ellipse fill="white" stroke="black" cx="-4.05766" cy="-86.6686" rx="1" ry="1"/>
</g>
<!-- anon_6_8_9&#45;&gt;anon_6_8_10 -->
<g id="edge18" class="edge"><title>anon_6_8_9&#45;&gt;anon_6_8_10</title>
<path fill="none" stroke="black" d="M-4.49631,-47.5983C-4.42742,-53.7343 -4.14324,-79.0455 -4.07328,-85.2774"/>
</g>
<!-- anon_6_8_11 -->
<g id="node31" class="node"><title>anon_6_8_11</title>
<ellipse fill="white" stroke="black" cx="-1.73519" cy="-128.919" rx="1" ry="1"/>
</g>
<!-- anon_6_8_10&#45;&gt;anon_6_8_11 -->
<g id="edge19" class="edge"><title>anon_6_8_10&#45;&gt;anon_6_8_11</title>
<path fill="none" stroke="black" d="M-4.00025,-87.713C-3.68731,-93.4059 -2.18783,-120.684 -1.81785,-127.415"/>
</g>
<!-- anon_6_8_11&#45;&gt;8 -->
<g id="edge20" class="edge"><title>anon_6_8_11&#45;&gt;8</title>
<path fill="none" stroke="black" d="M-1.46174,-129.903C0.041887,-135.313 7.38148,-161.725 11.3911,-176.153"/>
</g>
<!-- anon_8_12_0&#45;&gt;12 -->
<g id="edge24" class="edge"><title>anon_8_12_0&#45;&gt;12</title>
<path fill="none" stroke="black" d="M75.228,-205.779C80.6922,-207.379 105.765,-214.722 114.222,-217.199"/>
</g>
<!-- anon_8_13_1 -->
<g id="node34" class="node"><title>anon_8_13_1</title>
<ellipse fill="white" stroke="black" cx="0.353583" cy="-281.771" rx="1" ry="1"/>
</g>
<!-- anon_8_13_0&#45;&gt;anon_8_13_1 -->
<g id="edge26" class="edge"><title>anon_8_13_0&#45;&gt;anon_8_13_1</title>
<path fill="none" stroke="black" d="M0.0415053,-240.291C0.0846213,-246.022 0.291219,-273.482 0.342194,-280.257"/>
</g>
<!-- anon_8_13_1&#45;&gt;13 -->
<g id="edge27" class="edge"><title>anon_8_13_1&#45;&gt;13</title>
<path fill="none" stroke="black" d="M0.375915,-282.851C0.483518,-288.056 0.951757,-310.707 1.15841,-320.703"/>
</g>
<!-- anon_8_16_1 -->
<g id="node36" class="node"><title>anon_8_16_1</title>
<ellipse fill="white" stroke="black" cx="-83.583" cy="-205.891" rx="1" ry="1"/>
</g>
<!-- anon_8_16_0&#45;&gt;anon_8_16_1 -->
<g id="edge29" class="edge"><title>anon_8_16_0&#45;&gt;anon_8_16_1</title>
<path fill="none" stroke="black" d="M-43.394,-193.673C-48.9464,-195.361 -75.5518,-203.449 -82.1164,-205.445"/>
</g>
<!-- anon_8_16_1&#45;&gt;16 -->
<g id="edge30" class="edge"><title>anon_8_16_1&#45;&gt;16</title>
<path fill="none" stroke="black" d="M-84.5591,-206.294C-89.5946,-208.372 -112.7,-217.909 -120.494,-221.126"/>
</g>
</g>
</svg>
