<?xml version="1.0" encoding="UTF-8" standalone="no"?>
<!DOCTYPE svg PUBLIC "-//W3C//DTD SVG 1.1//EN"
 "http://www.w3.org/Graphics/SVG/1.1/DTD/svg11.dtd">
<!-- Generated by graphviz version 2.38.0 (20140413.2041)
 -->
<!-- Title: %3 Pages: 1 -->
<svg width="99pt" height="139pt"
 viewBox="0.00 0.00 98.70 138.51" xmlns="http://www.w3.org/2000/svg" xmlns:xlink="http://www.w3.org/1999/xlink">
<g id="graph0" class="graph" transform="scale(1 1) rotate(0) translate(58.2139 62.8185)">
<title>%3</title>
<polygon fill="white" stroke="none" points="-58.2139,75.6865 -58.2139,-62.8185 40.4904,-62.8185 40.4904,75.6865 -58.2139,75.6865"/>
<!-- 0 -->
<g id="node1" class="node"><title>0</title>
<ellipse fill="darkorange" stroke="black" cx="23" cy="13" rx="5" ry="5"/>
</g>
<!-- 1 -->
<g id="node2" class="node"><title>1</title>
<ellipse fill="#787878" stroke="black" cx="-14.7619" cy="-19.2082" rx="10" ry="10"/>
</g>
<!-- 2 -->
<g id="node3" class="node"><title>2</title>
<ellipse fill="#787878" stroke="black" cx="33.9904" cy="-38.3905" rx="2.5" ry="2.5"/>
</g>
<!-- 1&#45;&gt;2 -->
<g id="edge1" class="edge"><title>1&#45;&gt;2</title>
<path fill="none" stroke="black" d="M-5.36197,-22.9067C6.14861,-27.4357 24.9332,-34.8268 31.5728,-37.4393"/>
</g>
<!-- 4 -->
<g id="node5" class="node"><title>4</title>
<ellipse fill="#787878" stroke="black" cx="-51.7139" cy="-56.3185" rx="2.5" ry="2.5"/>
</g>
<!-- 1&#45;&gt;4 -->
<g id="edge4" class="edge"><title>1&#45;&gt;4</title>
<path fill="none" stroke="black" d="M-21.8866,-26.3634C-30.6111,-35.1253 -44.849,-49.4242 -49.8815,-54.4782"/>
</g>
<!-- anon_1_3_0 -->
<g id="node6" class="node"><title>anon_1_3_0</title>
<ellipse fill="white" stroke="black" cx="-24.9159" cy="29.7307" rx="1" ry="1"/>
</g>
<!-- 1&#45;&gt;anon_1_3_0 -->
<g id="edge2" class="edge"><title>1&#45;&gt;anon_1_3_0</title>
<path fill="none" stroke="black" d="M-16.8167,-9.30465C-19.4128,3.20793 -23.6666,23.7099 -24.6895,28.6399"/>
</g>
<!-- 3 -->
<g id="node4" class="node"><title>3</title>
<ellipse fill="#787878" stroke="black" cx="-32.5987" cy="69.1865" rx="2.5" ry="2.5"/>
</g>
<!-- anon_1_3_0&#45;&gt;3 -->
<g id="edge3" class="edge"><title>anon_1_3_0&#45;&gt;3</title>
<path fill="none" stroke="black" d="M-25.1715,31.0435C-26.2754,36.713 -30.6445,59.1505 -32.1138,66.6959"/>
</g>
</g>
</svg>
