<?xml version="1.0" encoding="UTF-8" standalone="no"?>
<!DOCTYPE svg PUBLIC "-//W3C//DTD SVG 1.1//EN"
 "http://www.w3.org/Graphics/SVG/1.1/DTD/svg11.dtd">
<!-- Generated by graphviz version 2.38.0 (20140413.2041)
 -->
<!-- Title: %3 Pages: 1 -->
<svg width="564pt" height="514pt"
 viewBox="0.00 0.00 563.89 514.18" xmlns="http://www.w3.org/2000/svg" xmlns:xlink="http://www.w3.org/1999/xlink">
<g id="graph0" class="graph" transform="scale(1 1) rotate(0) translate(193.503 320.136)">
<title>%3</title>
<polygon fill="white" stroke="none" points="-193.503,194.045 -193.503,-320.136 370.391,-320.136 370.391,194.045 -193.503,194.045"/>
<!-- 0 -->
<g id="node1" class="node"><title>0</title>
<ellipse fill="palegreen" stroke="black" cx="223.631" cy="-104.957" rx="24.5" ry="24.5"/>
</g>
<!-- 2 -->
<g id="node3" class="node"><title>2</title>
<ellipse fill="palegreen" stroke="black" cx="280.035" cy="-128.943" rx="2.5" ry="2.5"/>
</g>
<!-- 0&#45;&gt;2 -->
<g id="edge1" class="edge"><title>0&#45;&gt;2</title>
<path fill="none" stroke="black" d="M246.248,-114.575C258.507,-119.788 272.233,-125.625 277.652,-127.929"/>
</g>
<!-- 4 -->
<g id="node5" class="node"><title>4</title>
<ellipse fill="palegreen" stroke="black" cx="226.9" cy="-21.8814" rx="2.5" ry="2.5"/>
</g>
<!-- 0&#45;&gt;4 -->
<g id="edge2" class="edge"><title>0&#45;&gt;4</title>
<path fill="none" stroke="black" d="M224.612,-80.0317C225.41,-59.7671 226.455,-33.1868 226.791,-24.6484"/>
</g>
<!-- 7 -->
<g id="node8" class="node"><title>7</title>
<ellipse fill="palegreen" stroke="black" cx="257.907" cy="-182.203" rx="4.5" ry="4.5"/>
</g>
<!-- 0&#45;&gt;7 -->
<g id="edge5" class="edge"><title>0&#45;&gt;7</title>
<path fill="none" stroke="black" d="M233.73,-127.716C240.518,-143.014 249.089,-162.331 253.989,-173.374"/>
<polygon fill="black" stroke="black" points="252.449,-174.217 256.076,-178.077 255.648,-172.797 252.449,-174.217"/>
<text text-anchor="middle" x="223.905" y="-141.7" font-family="monospace" font-size="14.00">I492N</text>
</g>
<!-- 9 -->
<g id="node10" class="node"><title>9</title>
<ellipse fill="palegreen" stroke="black" cx="166.767" cy="-33.7253" rx="6" ry="6"/>
</g>
<!-- 0&#45;&gt;9 -->
<g id="edge6" class="edge"><title>0&#45;&gt;9</title>
<path fill="none" stroke="black" d="M208.093,-85.4927C195.334,-69.5101 178.18,-48.0222 170.62,-38.5514"/>
</g>
<!-- 10 -->
<g id="node11" class="node"><title>10</title>
<ellipse fill="palegreen" stroke="black" cx="300.044" cy="-71.6493" rx="2.5" ry="2.5"/>
</g>
<!-- 0&#45;&gt;10 -->
<g id="edge7" class="edge"><title>0&#45;&gt;10</title>
<path fill="none" stroke="black" d="M246.144,-95.1438C264.81,-87.0075 289.525,-76.2347 297.469,-72.7719"/>
</g>
<!-- 11 -->
<g id="node12" class="node"><title>11</title>
<ellipse fill="palegreen" stroke="black" cx="169.343" cy="-99.3695" rx="2.5" ry="2.5"/>
</g>
<!-- 0&#45;&gt;11 -->
<g id="edge8" class="edge"><title>0&#45;&gt;11</title>
<path fill="none" stroke="black" d="M199.029,-102.425C188.256,-101.316 176.944,-100.152 171.961,-99.639"/>
</g>
<!-- 12 -->
<g id="node13" class="node"><title>12</title>
<ellipse fill="palegreen" stroke="black" cx="144.549" cy="-68.4373" rx="3.5" ry="3.5"/>
</g>
<!-- 0&#45;&gt;12 -->
<g id="edge9" class="edge"><title>0&#45;&gt;12</title>
<path fill="none" stroke="black" d="M201.181,-94.5897C182.184,-85.8173 156.671,-74.0354 147.771,-69.9256"/>
</g>
<!-- 13 -->
<g id="node14" class="node"><title>13</title>
<ellipse fill="palegreen" stroke="black" cx="211.106" cy="-48.7704" rx="2.5" ry="2.5"/>
</g>
<!-- 0&#45;&gt;13 -->
<g id="edge10" class="edge"><title>0&#45;&gt;13</title>
<path fill="none" stroke="black" d="M218.247,-80.8028C215.647,-69.1435 212.842,-56.5607 211.67,-51.303"/>
</g>
<!-- 15 -->
<g id="node15" class="node"><title>15</title>
<ellipse fill="palegreen" stroke="black" cx="148.588" cy="-126.329" rx="2.5" ry="2.5"/>
</g>
<!-- 0&#45;&gt;15 -->
<g id="edge11" class="edge"><title>0&#45;&gt;15</title>
<path fill="none" stroke="black" d="M199.887,-111.719C181.68,-116.904 158.448,-123.52 151,-125.642"/>
</g>
<!-- 18 -->
<g id="node18" class="node"><title>18</title>
<ellipse fill="palegreen" stroke="black" cx="305.789" cy="-109.905" rx="2.5" ry="2.5"/>
</g>
<!-- 0&#45;&gt;18 -->
<g id="edge12" class="edge"><title>0&#45;&gt;18</title>
<path fill="none" stroke="black" d="M248.281,-106.442C265.191,-107.46 286.547,-108.746 297.88,-109.429"/>
<polygon fill="black" stroke="black" points="297.956,-111.186 303.053,-109.74 298.167,-107.693 297.956,-111.186"/>
<text text-anchor="middle" x="275.587" y="-96.8861" font-family="monospace" font-size="14.00">F1529L</text>
</g>
<!-- 19 -->
<g id="node19" class="node"><title>19</title>
<ellipse fill="palegreen" stroke="black" cx="284.186" cy="-158.937" rx="2.5" ry="2.5"/>
</g>
<!-- 0&#45;&gt;19 -->
<g id="edge13" class="edge"><title>0&#45;&gt;19</title>
<path fill="none" stroke="black" d="M242.129,-121.446C256.876,-134.592 276.04,-151.676 282.192,-157.16"/>
</g>
<!-- 20 -->
<g id="node20" class="node"><title>20</title>
<ellipse fill="palegreen" stroke="black" cx="223.777" cy="-182.839" rx="2.5" ry="2.5"/>
</g>
<!-- 0&#45;&gt;20 -->
<g id="edge14" class="edge"><title>0&#45;&gt;20</title>
<path fill="none" stroke="black" d="M223.677,-129.599C223.713,-148.495 223.757,-172.606 223.772,-180.336"/>
</g>
<!-- 21 -->
<g id="node21" class="node"><title>21</title>
<ellipse fill="palegreen" stroke="black" cx="269.245" cy="-65.8443" rx="2.5" ry="2.5"/>
</g>
<!-- 0&#45;&gt;21 -->
<g id="edge15" class="edge"><title>0&#45;&gt;21</title>
<path fill="none" stroke="black" d="M242.448,-88.8226C249.662,-82.636 257.427,-75.9777 262.732,-71.4294"/>
<polygon fill="black" stroke="black" points="264.168,-72.5028 266.825,-67.9196 261.89,-69.8458 264.168,-72.5028"/>
<text text-anchor="middle" x="233.609" y="-67.1944" font-family="monospace" font-size="14.00">M925L</text>
</g>
<!-- 23 -->
<g id="node23" class="node"><title>23</title>
<ellipse fill="palegreen" stroke="black" cx="264.937" cy="-32.5766" rx="2.5" ry="2.5"/>
</g>
<!-- 0&#45;&gt;23 -->
<g id="edge16" class="edge"><title>0&#45;&gt;23</title>
<path fill="none" stroke="black" d="M235.801,-83.632C245.891,-65.9512 259.251,-42.5409 263.545,-35.0159"/>
</g>
<!-- 27 -->
<g id="node27" class="node"><title>27</title>
<ellipse fill="palegreen" stroke="black" cx="203.072" cy="-156.083" rx="2.5" ry="2.5"/>
</g>
<!-- 0&#45;&gt;27 -->
<g id="edge17" class="edge"><title>0&#45;&gt;27</title>
<path fill="none" stroke="black" d="M214.434,-127.828C210.329,-138.038 205.99,-148.826 204.078,-153.582"/>
</g>
<!-- anon_0_6_0 -->
<g id="node63" class="node"><title>anon_0_6_0</title>
<ellipse fill="white" stroke="black" cx="166.657" cy="-169.148" rx="1" ry="1"/>
</g>
<!-- 0&#45;&gt;anon_0_6_0 -->
<g id="edge3" class="edge"><title>0&#45;&gt;anon_0_6_0</title>
<path fill="none" stroke="black" d="M207.152,-123.524C192.429,-140.112 172.468,-162.602 167.707,-167.966"/>
</g>
<!-- 1 -->
<g id="node2" class="node"><title>1</title>
<ellipse fill="palegreen" stroke="black" cx="-14.1541" cy="60.6185" rx="9.5" ry="9.5"/>
</g>
<!-- 3 -->
<g id="node4" class="node"><title>3</title>
<path fill="palegreen" stroke="black" stroke-width="0.5" d="M14.6492,-31.9199C14.6492,-31.9199 42.1492,-31.9199 42.1492,-31.9199 42.1492,-32.9727 42.0887,-34.0246 41.9681,-35.0704 41.8475,-36.1162 41.667,-37.1543 41.4274,-38.1794 41.1877,-39.2045 40.8894,-40.215 40.5339,-41.2059 40.1785,-42.1969 39.7664,-43.1666 39.2997,-44.1102 38.833,-45.0539 38.3126,-45.97 37.7408,-46.854 37.1691,-47.738 36.5471,-48.5884 35.8779,-49.4011 35.2087,-50.2138 34.4934,-50.9874 33.7355,-51.718 32.9776,-52.4487 32.1783,-53.1352 31.3417,-53.7742 30.5051,-54.4133 29.6324,-55.0037 28.7281,-55.5427 27.8238,-56.0817 26.8893,-56.5683 25.9291,-57.0001 24.969,-57.4319 23.9849,-57.8082 22.9816,-58.1272 21.9784,-58.4462 20.9576,-58.7073 19.9244,-58.9092 18.8912,-59.1112 17.8472,-59.2536 16.7977,-59.3359 15.7482,-59.4181 14.6948,-59.44 13.6427,-59.4015 12.5907,-59.363 11.5417,-59.2641 10.501,-59.1053 9.46028,-58.9465 8.42955,-58.728 7.41388,-58.4511 6.39822,-58.1741 5.39929,-57.839 4.42205,-57.4475 3.4448,-57.056 2.49084,-56.6087 1.56488,-56.1078 0.638925,-55.6069 -0.257507,-55.0532 -1.11999,-54.4495 -1.98246,-53.8459 -2.80957,-53.1932 -3.59721,-52.4946 -4.38485,-51.7961 -5.13173,-51.053 -5.83416,-50.2688 -6.5366,-49.4847 -7.19342,-48.6608 -7.8014,-47.8014 -8.40937,-46.9419 -8.96749,-46.0483 -9.473,-45.1248 -9.97851,-44.2014 -10.4306,-43.2497 -10.827,-42.2744 -11.2234,-41.2991 -11.5634,-40.3019 -11.8455,-39.2876 -12.1275,-38.2733 -12.3511,-37.2437 -12.5151,-36.2038 -12.6791,-35.1639 -12.7832,-34.1154 -12.827,-33.0636 -12.8708,-32.0117 -12.8541,-30.9583 -12.7771,-29.9083 -12.7001,-28.8584 -12.5629,-27.8137 -12.3661,-26.7795 -12.1693,-25.7453 -11.9133,-24.7233 -11.5993,-23.7184 -11.2854,-22.7136 -10.9139,-21.7276 -10.4869,-20.7653 -10.0599,-19.8031 -9.57798,-18.8661 -9.04354,-17.9591 -9.04354,-17.9591 14.6492,-31.9199 14.6492,-31.9199"/>
<path fill="#787878" stroke="black" stroke-width="0.5" d="M14.6492,-31.9199C14.6492,-31.9199 -9.04354,-17.9591 -9.04354,-17.9591 -8.66405,-17.3151 -8.25847,-16.6868 -7.82779,-16.0759 -7.39712,-15.4649 -6.94171,-14.8717 -6.4627,-14.2979 -5.9837,-13.724 -5.4815,-13.1699 -4.95734,-12.637 -4.43319,-12.104 -3.88753,-11.5927 -3.32171,-11.1042 -2.7559,-10.6157 -2.1704,-10.1505 -1.56668,-9.70968 -0.962957,-9.2689 -0.341514,-8.85292 0.2961,-8.46277 0.933715,-8.07263 1.58697,-7.70864 2.25424,-7.37172 2.92152,-7.0348 3.60225,-6.72522 4.29474,-6.44377 4.98724,-6.16231 5.69092,-5.90921 6.40404,-5.68509 7.11716,-5.46097 7.83912,-5.26601 8.56812,-5.10072 9.29712,-4.93542 10.0326,-4.79992 10.7726,-4.69454 11.5126,-4.58917 12.2567,-4.51401 13.0028,-4.46926 13.749,-4.42451 14.4967,-4.4102 15.244,-4.42637 15.9914,-4.44254 16.7377,-4.48917 17.4813,-4.56615 18.2248,-4.64313 18.9649,-4.7504 19.6997,-4.88768 20.4345,-5.02496 21.1634,-5.19215 21.8845,-5.38882 22.6057,-5.58549 23.3185,-5.81149 24.0213,-6.06624 24.7241,-6.32099 25.4161,-6.60429 26.0958,-6.91544 26.7755,-7.22658 27.4422,-7.5653 28.0943,-7.93077 28.7463,-8.29623 29.3832,-8.68814 30.0034,-9.10549 30.6235,-9.52285 31.2264,-9.96532 31.8105,-10.4318 32.3946,-10.8983 32.9594,-11.3884 33.5036,-11.9009 34.0477,-12.4134 34.5708,-12.9479 35.0714,-13.503 35.572,-14.0581 36.0498,-14.6334 36.5035,-15.2274 36.9572,-15.8215 37.3866,-16.4338 37.7904,-17.0628 38.1943,-17.6918 38.5723,-18.3371 38.9236,-18.9969 39.2748,-19.6567 39.5991,-20.3306 39.8954,-21.0169 40.1918,-21.7031 40.4601,-22.4011 40.6996,-23.1092 40.9391,-23.8173 41.1496,-24.5349 41.3306,-25.2602 41.5116,-25.9854 41.663,-26.7178 41.7844,-27.4554 41.9057,-28.193 41.997,-28.9352 42.0578,-29.6802 42.1187,-30.4252 42.1492,-31.1724 42.1492,-31.9199 42.1492,-31.9199 14.6492,-31.9199 14.6492,-31.9199"/>
<ellipse fill="none" stroke="black" cx="14.6492" cy="-31.9199" rx="27.5" ry="27.5"/>
</g>
<!-- 1&#45;&gt;3 -->
<g id="edge18" class="edge"><title>1&#45;&gt;3</title>
<path fill="none" stroke="black" d="M-11.287,51.4073C-7.18897,38.2411 0.505161,13.5216 6.45313,-5.58784"/>
</g>
<!-- 24 -->
<g id="node24" class="node"><title>24</title>
<ellipse fill="palegreen" stroke="black" cx="-69.3104" cy="64.8642" rx="2.5" ry="2.5"/>
</g>
<!-- 1&#45;&gt;24 -->
<g id="edge21" class="edge"><title>1&#45;&gt;24</title>
<path fill="none" stroke="black" d="M-23.7616,61.3581C-34.3945,62.1765 -51.3399,63.4809 -61.2893,64.2468"/>
<polygon fill="black" stroke="black" points="-61.3416,66.0059 -66.4611,64.6449 -61.6102,62.5162 -61.3416,66.0059"/>
<text text-anchor="middle" x="-66.0108" y="59.1937" font-family="monospace" font-size="14.00">T297S</text>
</g>
<!-- 25 -->
<g id="node25" class="node"><title>25</title>
<ellipse fill="palegreen" stroke="black" cx="28.1187" cy="95.4391" rx="2.5" ry="2.5"/>
</g>
<!-- 1&#45;&gt;25 -->
<g id="edge22" class="edge"><title>1&#45;&gt;25</title>
<path fill="none" stroke="black" d="M-6.79075,66.6838C3.0498,74.7896 19.9452,88.7065 25.935,93.6403"/>
</g>
<!-- anon_1_17_0 -->
<g id="node64" class="node"><title>anon_1_17_0</title>
<ellipse fill="white" stroke="black" cx="-30.2457" cy="110.854" rx="1" ry="1"/>
</g>
<!-- 1&#45;&gt;anon_1_17_0 -->
<g id="edge19" class="edge"><title>1&#45;&gt;anon_1_17_0</title>
<path fill="none" stroke="black" d="M-17.1056,69.8324C-21.1704,82.522 -28.1822,104.412 -29.8716,109.686"/>
</g>
<!-- 5 -->
<g id="node6" class="node"><title>5</title>
<path fill="#787878" stroke="black" stroke-width="0.5" d="M-83.6847,-73.5193C-83.6847,-73.5193 -71.6847,-73.5193 -71.6847,-73.5193 -71.6847,-73.9291 -71.7057,-74.3387 -71.7476,-74.7465 -71.7895,-75.1542 -71.8523,-75.5595 -71.9357,-75.9608 -72.0191,-76.362 -72.123,-76.7588 -72.247,-77.1495 -72.3709,-77.5401 -72.5149,-77.9242 -72.6782,-78.3001 -72.8415,-78.676 -73.0239,-79.0433 -73.2248,-79.4006 -73.4256,-79.7579 -73.6447,-80.1046 -73.8811,-80.4394 -74.1174,-80.7743 -74.3708,-81.0968 -74.6401,-81.4057 -74.9095,-81.7146 -75.1945,-82.0096 -75.4941,-82.2893 -75.7936,-82.5691 -76.1073,-82.8333 -76.4339,-83.0809 -76.7604,-83.3286 -77.0995,-83.5594 -77.4497,-83.7723 -77.7999,-83.9853 -78.1608,-84.1802 -78.5309,-84.3562 -78.901,-84.5322 -79.2799,-84.6892 -79.6661,-84.8264 -80.0523,-84.9637 -80.4453,-85.0811 -80.8435,-85.1781 -81.2417,-85.2751 -81.6447,-85.3517 -82.0507,-85.4075 -82.4567,-85.4633 -82.8654,-85.4983 -83.275,-85.5123 -83.6846,-85.5263 -84.0947,-85.5193 -84.5036,-85.4913 -84.5036,-85.4913 -83.6847,-73.5193 -83.6847,-73.5193"/>
<path fill="palegreen" stroke="black" stroke-width="0.5" d="M-83.6847,-73.5193C-83.6847,-73.5193 -84.5036,-85.4913 -84.5036,-85.4913 -85.083,-85.4517 -85.6588,-85.37 -86.2264,-85.247 -86.794,-85.124 -87.3519,-84.96 -87.8957,-84.7562 -88.4395,-84.5524 -88.9679,-84.3093 -89.4765,-84.029 -89.9852,-83.7487 -90.4728,-83.4319 -90.9355,-83.0809 -91.3983,-82.73 -91.835,-82.346 -92.2421,-81.9318 -92.6492,-81.5177 -93.0258,-81.0745 -93.3688,-80.6058 -93.7117,-80.1371 -94.0202,-79.6442 -94.2918,-79.1308 -94.5634,-78.6175 -94.7973,-78.0851 -94.9918,-77.5378 -95.1863,-76.9906 -95.3408,-76.43 -95.4541,-75.8604 -95.5674,-75.2908 -95.6392,-74.7137 -95.669,-74.1337 -95.6987,-73.5537 -95.6863,-72.9723 -95.6318,-72.3941 -95.5774,-71.8159 -95.481,-71.2424 -95.3435,-70.6781 -95.206,-70.1139 -95.0277,-69.5603 -94.8101,-69.0219 -94.5924,-68.4835 -94.3359,-67.9615 -94.0427,-67.4602 -93.7494,-66.9589 -93.4202,-66.4796 -93.0575,-66.026 -92.6949,-65.5724 -92.2998,-65.1457 -91.8753,-64.7493 -91.4509,-64.3529 -90.9982,-63.9878 -90.5209,-63.6569 -90.0436,-63.3261 -89.5429,-63.0303 -89.0228,-62.772 -88.5026,-62.5136 -87.9644,-62.2934 -87.4124,-62.113 -86.8603,-61.9325 -86.2959,-61.7925 -85.7236,-61.6938 -85.1513,-61.5951 -84.5726,-61.5381 -83.992,-61.5232 -83.4114,-61.5083 -82.8305,-61.5356 -82.2539,-61.6049 -81.6773,-61.6741 -81.1064,-61.7852 -80.5459,-61.9371 -79.9853,-62.089 -79.4366,-62.2814 -78.9039,-62.5128 -78.3712,-62.7441 -77.856,-63.0139 -77.3624,-63.3199 -76.8688,-63.6258 -76.398,-63.9672 -75.9538,-64.3414 -75.5096,-64.7156 -75.0932,-65.1215 -74.7078,-65.5559 -74.3224,-65.9904 -73.969,-66.4522 -73.6505,-66.9379 -73.332,-67.4235 -73.0491,-67.9316 -72.8042,-68.4582 -72.5593,-68.9848 -72.3529,-69.5284 -72.1866,-70.0849 -72.0204,-70.6414 -71.8948,-71.2092 -71.8108,-71.7839 -71.7269,-72.3585 -71.6847,-72.9385 -71.6847,-73.5193 -71.6847,-73.5193 -83.6847,-73.5193 -83.6847,-73.5193"/>
<ellipse fill="none" stroke="black" cx="-83.6847" cy="-73.5193" rx="12" ry="12"/>
</g>
<!-- 3&#45;&gt;5 -->
<g id="edge23" class="edge"><title>3&#45;&gt;5</title>
<path fill="none" stroke="black" d="M-10.9302,-42.7411C-30.8473,-51.1669 -57.5322,-62.4557 -72.4248,-68.7559"/>
</g>
<!-- 16 -->
<g id="node16" class="node"><title>16</title>
<ellipse fill="palegreen" stroke="black" cx="-3.29944" cy="-113.587" rx="2.5" ry="2.5"/>
</g>
<!-- 3&#45;&gt;16 -->
<g id="edge24" class="edge"><title>3&#45;&gt;16</title>
<path fill="none" stroke="black" d="M8.67256,-59.114C4.3487,-78.7878 -1.02406,-103.234 -2.74321,-111.056"/>
</g>
<!-- 26 -->
<g id="node26" class="node"><title>26</title>
<ellipse fill="palegreen" stroke="black" cx="-45.5728" cy="-14.8106" rx="2.5" ry="2.5"/>
</g>
<!-- 3&#45;&gt;26 -->
<g id="edge25" class="edge"><title>3&#45;&gt;26</title>
<path fill="none" stroke="black" d="M-11.9403,-24.3657C-24.2919,-20.8566 -37.4448,-17.1198 -42.9318,-15.5609"/>
</g>
<!-- 28 -->
<g id="node28" class="node"><title>28</title>
<ellipse fill="#787878" stroke="black" cx="88.1545" cy="-96.5012" rx="8.5" ry="8.5"/>
</g>
<!-- 3&#45;&gt;28 -->
<g id="edge26" class="edge"><title>3&#45;&gt;28</title>
<path fill="none" stroke="black" d="M35.5162,-50.2536C51.1357,-63.9767 71.4951,-81.8644 81.7118,-90.8408"/>
</g>
<!-- 30 -->
<g id="node30" class="node"><title>30</title>
<ellipse fill="#787878" stroke="black" cx="-31.9379" cy="-75.4122" rx="2.5" ry="2.5"/>
</g>
<!-- 3&#45;&gt;30 -->
<g id="edge29" class="edge"><title>3&#45;&gt;30</title>
<path fill="none" stroke="black" d="M-5.64907,-50.8698C-15.0648,-59.66 -25.1444,-69.07 -29.5957,-73.2257"/>
</g>
<!-- 31 -->
<g id="node31" class="node"><title>31</title>
<ellipse fill="#787878" stroke="black" cx="77.3522" cy="-35.01" rx="2.5" ry="2.5"/>
</g>
<!-- 3&#45;&gt;31 -->
<g id="edge30" class="edge"><title>3&#45;&gt;31</title>
<path fill="none" stroke="black" d="M42.3342,-33.2843C55.1946,-33.918 68.8894,-34.5929 74.6024,-34.8745"/>
</g>
<!-- 32 -->
<g id="node32" class="node"><title>32</title>
<ellipse fill="#787878" stroke="black" cx="35.8461" cy="-92.9728" rx="2.5" ry="2.5"/>
</g>
<!-- 3&#45;&gt;32 -->
<g id="edge31" class="edge"><title>3&#45;&gt;32</title>
<path fill="none" stroke="black" d="M23.7616,-58.1662C28.25,-71.0938 33.101,-85.0663 35.0086,-90.5607"/>
</g>
<!-- anon_3_29_0 -->
<g id="node65" class="node"><title>anon_3_29_0</title>
<ellipse fill="white" stroke="black" cx="83.4157" cy="10.5227" rx="1" ry="1"/>
</g>
<!-- 3&#45;&gt;anon_3_29_0 -->
<g id="edge27" class="edge"><title>3&#45;&gt;anon_3_29_0</title>
<path fill="none" stroke="black" d="M38.3147,-17.3136C55.72,-6.57108 77.1965,6.68422 82.2936,9.83019"/>
</g>
<!-- 22 -->
<g id="node22" class="node"><title>22</title>
<ellipse fill="palegreen" stroke="black" cx="-130.333" cy="-102.43" rx="2.5" ry="2.5"/>
</g>
<!-- 5&#45;&gt;22 -->
<g id="edge32" class="edge"><title>5&#45;&gt;22</title>
<path fill="none" stroke="black" d="M-94.0374,-79.9354C-105.203,-86.8557 -122.185,-97.3802 -128.161,-101.084"/>
</g>
<!-- 6 -->
<g id="node7" class="node"><title>6</title>
<ellipse fill="palegreen" stroke="black" cx="139.716" cy="-204.401" rx="2.5" ry="2.5"/>
</g>
<!-- 8 -->
<g id="node9" class="node"><title>8</title>
<ellipse fill="palegreen" stroke="black" cx="117.751" cy="-29.0026" rx="3.5" ry="3.5"/>
</g>
<!-- 8&#45;&gt;9 -->
<g id="edge33" class="edge"><title>8&#45;&gt;9</title>
<path fill="none" stroke="black" d="M121.276,-29.3423C129.53,-30.1375 150.195,-32.1286 160.59,-33.1302"/>
</g>
<!-- 8&#45;&gt;12 -->
<g id="edge62" class="edge"><title>8&#45;&gt;12</title>
<path fill="none" stroke="black" stroke-dasharray="5,2" d="M119.854,-32.097C124.888,-39.505 137.58,-58.183 142.529,-65.4652"/>
</g>
<!-- 17 -->
<g id="node17" class="node"><title>17</title>
<ellipse fill="palegreen" stroke="black" cx="-46.6516" cy="149.465" rx="2.5" ry="2.5"/>
</g>
<!-- 33 -->
<g id="node33" class="node"><title>33</title>
<ellipse fill="#787878" stroke="black" cx="121.356" cy="-134.713" rx="2.5" ry="2.5"/>
</g>
<!-- 28&#45;&gt;33 -->
<g id="edge34" class="edge"><title>28&#45;&gt;33</title>
<path fill="none" stroke="black" d="M93.9377,-103.157C101.666,-112.052 114.936,-127.325 119.641,-132.739"/>
</g>
<!-- 29 -->
<g id="node29" class="node"><title>29</title>
<ellipse fill="#787878" stroke="black" cx="125.297" cy="24.113" rx="2.5" ry="2.5"/>
</g>
<!-- 36 -->
<g id="node34" class="node"><title>36</title>
<ellipse fill="#1874cd" stroke="black" cx="-128.216" cy="117.133" rx="15.5" ry="15.5"/>
</g>
<!-- 40 -->
<g id="node38" class="node"><title>40</title>
<ellipse fill="#1874cd" stroke="black" cx="-89.2976" cy="164.069" rx="2.5" ry="2.5"/>
</g>
<!-- 36&#45;&gt;40 -->
<g id="edge35" class="edge"><title>36&#45;&gt;40</title>
<path fill="none" stroke="black" d="M-117.99,129.465C-108.622,140.764 -95.5354,156.546 -90.9574,162.067"/>
</g>
<!-- 43 -->
<g id="node41" class="node"><title>43</title>
<ellipse fill="#1874cd" stroke="black" cx="-161.051" cy="168.445" rx="2.5" ry="2.5"/>
</g>
<!-- 36&#45;&gt;43 -->
<g id="edge36" class="edge"><title>36&#45;&gt;43</title>
<path fill="none" stroke="black" d="M-136.672,130.347C-144.576,142.7 -155.73,160.13 -159.635,166.232"/>
</g>
<!-- 48 -->
<g id="node46" class="node"><title>48</title>
<ellipse fill="#1874cd" stroke="black" cx="-187.003" cy="101.116" rx="2.5" ry="2.5"/>
</g>
<!-- 36&#45;&gt;48 -->
<g id="edge37" class="edge"><title>36&#45;&gt;48</title>
<path fill="none" stroke="black" d="M-143.355,113.008C-157.507,109.152 -177.476,103.712 -184.467,101.807"/>
</g>
<!-- 49 -->
<g id="node47" class="node"><title>49</title>
<ellipse fill="#1874cd" stroke="black" cx="-71.3424" cy="95.0272" rx="2.5" ry="2.5"/>
</g>
<!-- 36&#45;&gt;49 -->
<g id="edge38" class="edge"><title>36&#45;&gt;49</title>
<path fill="none" stroke="black" d="M-113.569,111.44C-99.8779,106.118 -80.5586,98.6094 -73.7953,95.9806"/>
</g>
<!-- 55 -->
<g id="node51" class="node"><title>55</title>
<ellipse fill="#1874cd" stroke="black" cx="-131.09" cy="56.2099" rx="2.5" ry="2.5"/>
</g>
<!-- 36&#45;&gt;55 -->
<g id="edge39" class="edge"><title>36&#45;&gt;55</title>
<path fill="none" stroke="black" d="M-128.956,101.444C-129.648,86.7772 -130.625,66.0824 -130.966,58.8375"/>
</g>
<!-- 37 -->
<g id="node35" class="node"><title>37</title>
<ellipse fill="#1874cd" stroke="black" cx="-64.5641" cy="-275.084" rx="5.5" ry="5.5"/>
</g>
<!-- 39 -->
<g id="node37" class="node"><title>39</title>
<ellipse fill="#1874cd" stroke="black" cx="-40.7196" cy="-216.22" rx="12" ry="12"/>
</g>
<!-- 37&#45;&gt;39 -->
<g id="edge40" class="edge"><title>37&#45;&gt;39</title>
<path fill="none" stroke="black" d="M-62.3636,-269.651C-58.4898,-260.088 -50.3791,-240.066 -45.2607,-227.431"/>
</g>
<!-- 41 -->
<g id="node39" class="node"><title>41</title>
<ellipse fill="#1874cd" stroke="black" cx="-111.966" cy="-275.794" rx="2.5" ry="2.5"/>
</g>
<!-- 37&#45;&gt;41 -->
<g id="edge41" class="edge"><title>37&#45;&gt;41</title>
<path fill="none" stroke="black" d="M-70.3765,-275.171C-80.6608,-275.325 -101.689,-275.64 -109.212,-275.753"/>
</g>
<!-- 52 -->
<g id="node49" class="node"><title>52</title>
<ellipse fill="#1874cd" stroke="black" cx="-33.4194" cy="-312.636" rx="3.5" ry="3.5"/>
</g>
<!-- 37&#45;&gt;52 -->
<g id="edge42" class="edge"><title>37&#45;&gt;52</title>
<path fill="none" stroke="black" d="M-60.9914,-279.391C-55.6987,-285.773 -45.7135,-297.813 -39.3231,-305.518"/>
<polygon fill="black" stroke="black" points="-40.4217,-306.935 -35.8828,-309.666 -37.7277,-304.7 -40.4217,-306.935"/>
<text text-anchor="middle" x="-73.3356" y="-298.451" font-family="monospace" font-size="14.00">S2076T</text>
</g>
<!-- 38 -->
<g id="node36" class="node"><title>38</title>
<ellipse fill="#1874cd" stroke="black" cx="-52" cy="14" rx="4.5" ry="4.5"/>
</g>
<!-- 45 -->
<g id="node43" class="node"><title>45</title>
<ellipse fill="#1874cd" stroke="black" cx="-97.9703" cy="-233.696" rx="2.5" ry="2.5"/>
</g>
<!-- 39&#45;&gt;45 -->
<g id="edge43" class="edge"><title>39&#45;&gt;45</title>
<path fill="none" stroke="black" d="M-52.3052,-219.757C-65.8973,-223.906 -87.5483,-230.515 -95.1896,-232.847"/>
</g>
<!-- 47 -->
<g id="node45" class="node"><title>47</title>
<ellipse fill="#1874cd" stroke="black" cx="-10.8444" cy="-270.402" rx="4.5" ry="4.5"/>
</g>
<!-- 39&#45;&gt;47 -->
<g id="edge46" class="edge"><title>39&#45;&gt;47</title>
<path fill="none" stroke="black" d="M-34.8173,-226.925C-29.1929,-237.125 -20.831,-252.29 -15.6156,-261.749"/>
<polygon fill="black" stroke="black" points="-17.026,-262.815 -13.0792,-266.349 -13.9611,-261.125 -17.026,-262.815"/>
<text text-anchor="middle" x="-49.096" y="-250.169" font-family="monospace" font-size="14.00">S2076T</text>
</g>
<!-- 54 -->
<g id="node50" class="node"><title>54</title>
<ellipse fill="#1874cd" stroke="black" cx="-86.7679" cy="-180.049" rx="2.5" ry="2.5"/>
</g>
<!-- 39&#45;&gt;54 -->
<g id="edge49" class="edge"><title>39&#45;&gt;54</title>
<path fill="none" stroke="black" d="M-50.4853,-208.549C-61.4679,-199.922 -78.556,-186.499 -84.5779,-181.769"/>
</g>
<!-- anon_39_46_0 -->
<g id="node66" class="node"><title>anon_39_46_0</title>
<ellipse fill="white" stroke="black" cx="16.9303" cy="-208.207" rx="1" ry="1"/>
</g>
<!-- 39&#45;&gt;anon_39_46_0 -->
<g id="edge44" class="edge"><title>39&#45;&gt;anon_39_46_0</title>
<path fill="none" stroke="black" d="M-28.7745,-214.56C-13.9992,-212.506 9.91209,-209.182 15.6591,-208.383"/>
</g>
<!-- anon_39_50_0 -->
<g id="node67" class="node"><title>anon_39_50_0</title>
<ellipse fill="white" stroke="black" cx="-34.1645" cy="-159.458" rx="1" ry="1"/>
</g>
<!-- 39&#45;&gt;anon_39_50_0 -->
<g id="edge47" class="edge"><title>39&#45;&gt;anon_39_50_0</title>
<path fill="none" stroke="black" d="M-39.3295,-204.183C-37.6458,-189.603 -34.9541,-166.296 -34.3075,-160.696"/>
</g>
<!-- 41&#45;&gt;45 -->
<g id="edge63" class="edge"><title>41&#45;&gt;45</title>
<path fill="none" stroke="black" stroke-dasharray="5,2" d="M-111.048,-273.032C-108.469,-265.276 -101.193,-243.39 -98.7679,-236.095"/>
</g>
<!-- 42 -->
<g id="node40" class="node"><title>42</title>
<ellipse fill="#1874cd" stroke="black" cx="40.6744" cy="50.7627" rx="2.5" ry="2.5"/>
</g>
<!-- 44 -->
<g id="node42" class="node"><title>44</title>
<path fill="#1874cd" stroke="black" stroke-width="0.5" d="M226.357,85.7667C226.357,85.7667 248.857,85.7667 248.857,85.7667 248.857,84.5577 248.759,83.3507 248.565,82.1574 248.371,80.9641 248.082,79.7884 247.699,78.6416 247.316,77.4949 246.841,76.3809 246.279,75.3104 245.718,74.2399 245.07,73.2164 244.344,72.2499 244.344,72.2499 226.357,85.7667 226.357,85.7667"/>
<path fill="olivedrab" stroke="black" stroke-width="0.5" d="M226.357,85.7667C226.357,85.7667 244.344,72.2499 244.344,72.2499 243.947,71.7216 243.527,71.211 243.085,70.7196 242.643,70.2283 242.18,69.7566 241.696,69.306 241.213,68.8555 240.709,68.4264 240.188,68.0201 239.667,67.6139 239.128,67.2308 238.573,66.8719 238.018,66.5131 237.447,66.1789 236.863,65.8703 236.279,65.5617 235.681,65.279 235.072,65.023 234.462,64.767 233.842,64.538 233.213,64.3366 232.583,64.1352 231.945,63.9617 231.3,63.8165 230.655,63.6712 230.005,63.5545 229.35,63.4666 228.695,63.3787 228.036,63.3197 227.376,63.2897 226.716,63.2598 226.054,63.259 225.394,63.2872 224.734,63.3155 224.075,63.3729 223.42,63.4591 222.765,63.5454 222.113,63.6605 221.468,63.8041 220.823,63.9477 220.185,64.1196 219.555,64.3194 218.925,64.5192 218.304,64.7467 217.694,65.0011 217.084,65.2556 216.486,65.5368 215.9,65.8439 215.315,66.151 214.744,66.4838 214.188,66.8412 213.632,67.1987 213.092,67.5804 212.57,67.9854 212.048,68.3904 211.543,68.8181 211.059,69.2675 210.574,69.7168 210.109,70.1873 209.666,70.6776 209.223,71.1678 208.802,71.6774 208.403,72.2047 208.005,72.7321 207.63,73.2767 207.28,73.8371 206.929,74.3974 206.604,74.9729 206.304,75.562 206.004,76.151 205.73,76.7529 205.484,77.366 205.237,77.9791 205.017,78.6028 204.825,79.2352 204.634,79.8677 204.47,80.5083 204.334,81.1551 204.199,81.802 204.092,82.4545 204.014,83.1108 203.936,83.7671 203.887,84.4265 203.867,85.0871 203.847,85.7477 203.856,86.4088 203.894,87.0686 203.933,87.7284 204,88.3862 204.096,89.0401 204.192,89.6939 204.317,90.3433 204.47,90.9861 204.624,91.629 204.805,92.2648 205.015,92.8917 205.224,93.5186 205.461,94.1359 205.724,94.742 205.988,95.348 206.278,95.9421 206.594,96.5226 206.91,97.1031 207.251,97.6694 207.617,98.2198 207.983,98.7703 208.373,99.3043 208.786,99.8205 209.198,100.337 209.634,100.834 210.09,101.312 210.547,101.79 211.024,102.247 211.521,102.683 212.018,103.119 212.534,103.532 213.067,103.923 213.601,104.313 214.151,104.68 214.717,105.022 215.282,105.364 215.863,105.68 216.456,105.971 217.049,106.262 217.655,106.527 218.272,106.764 218.889,107.002 219.516,107.212 220.151,107.394 220.786,107.576 221.429,107.73 222.078,107.856 222.727,107.982 223.381,108.079 224.039,108.147 224.696,108.215 225.356,108.254 226.017,108.264 226.678,108.274 227.339,108.255 227.998,108.207 228.657,108.159 229.314,108.081 229.966,107.975 230.618,107.869 231.266,107.735 231.906,107.572 232.547,107.409 233.18,107.217 233.803,106.999 234.427,106.78 235.041,106.534 235.643,106.261 236.245,105.988 236.834,105.689 237.41,105.365 237.986,105.04 238.547,104.69 239.091,104.316 239.636,103.942 240.164,103.544 240.674,103.123 241.184,102.703 241.675,102.26 242.146,101.796 242.617,101.332 243.067,100.848 243.495,100.345 243.923,99.8413 244.329,99.3193 244.711,98.7802 245.094,98.241 245.452,97.6853 245.785,97.1146 246.119,96.5439 246.427,95.9588 246.709,95.361 246.99,94.7632 247.246,94.1533 247.474,93.533 247.702,92.9127 247.903,92.2827 248.075,91.6448 248.248,91.0068 248.392,90.3616 248.508,89.7109 248.624,89.0603 248.711,88.4048 248.769,87.7465 248.828,87.0881 248.857,86.4275 248.857,85.7667 248.857,85.7667 226.357,85.7667 226.357,85.7667"/>
<ellipse fill="none" stroke="black" cx="226.357" cy="85.7667" rx="22.5" ry="22.5"/>
</g>
<!-- 56 -->
<g id="node52" class="node"><title>56</title>
<ellipse fill="olivedrab" stroke="black" cx="295.778" cy="136.193" rx="8" ry="8"/>
</g>
<!-- 44&#45;&gt;56 -->
<g id="edge52" class="edge"><title>44&#45;&gt;56</title>
<path fill="none" stroke="black" d="M244.596,99.0156C259.219,109.637 278.919,123.947 289.087,131.332"/>
</g>
<!-- 58 -->
<g id="node53" class="node"><title>58</title>
<ellipse fill="olivedrab" stroke="black" cx="217.558" cy="152.471" rx="2.5" ry="2.5"/>
</g>
<!-- 44&#45;&gt;58 -->
<g id="edge53" class="edge"><title>44&#45;&gt;58</title>
<path fill="none" stroke="black" d="M223.378,108.35C221.344,123.77 218.856,142.632 217.929,149.658"/>
</g>
<!-- 59 -->
<g id="node54" class="node"><title>59</title>
<ellipse fill="olivedrab" stroke="black" cx="169.934" cy="42.4172" rx="2.5" ry="2.5"/>
</g>
<!-- 44&#45;&gt;59 -->
<g id="edge54" class="edge"><title>44&#45;&gt;59</title>
<path fill="none" stroke="black" d="M208.504,72.0506C197.382,63.5054 183.765,53.0436 176.046,47.1131"/>
<polygon fill="black" stroke="black" points="174.976,48.4977 172.077,44.0637 177.108,45.7222 174.976,48.4977"/>
<text text-anchor="middle" x="169.46" y="69.3875" font-family="monospace" font-size="14.00">R537L</text>
</g>
<!-- 61 -->
<g id="node55" class="node"><title>61</title>
<ellipse fill="olivedrab" stroke="black" cx="261.002" cy="20.6654" rx="2.5" ry="2.5"/>
</g>
<!-- 44&#45;&gt;61 -->
<g id="edge55" class="edge"><title>44&#45;&gt;61</title>
<path fill="none" stroke="black" d="M236.94,65.8804C243.86,52.8771 252.48,36.6793 257.299,27.6249"/>
<polygon fill="black" stroke="black" points="255.761,26.7892 259.655,23.1975 258.851,28.4336 255.761,26.7892"/>
<text text-anchor="middle" x="223.246" y="40.8352" font-family="monospace" font-size="14.00">G1990S</text>
</g>
<!-- 62 -->
<g id="node56" class="node"><title>62</title>
<ellipse fill="olivedrab" stroke="black" cx="212.004" cy="15.3817" rx="2.5" ry="2.5"/>
</g>
<!-- 44&#45;&gt;62 -->
<g id="edge56" class="edge"><title>44&#45;&gt;62</title>
<path fill="none" stroke="black" d="M221.815,63.4964C218.399,46.7422 214.057,25.4503 212.549,18.0549"/>
</g>
<!-- 63 -->
<g id="node57" class="node"><title>63</title>
<ellipse fill="olivedrab" stroke="black" cx="154.879" cy="90.41" rx="2.5" ry="2.5"/>
</g>
<!-- 44&#45;&gt;63 -->
<g id="edge57" class="edge"><title>44&#45;&gt;63</title>
<path fill="none" stroke="black" d="M203.741,87.2358C186.726,88.3411 165.104,89.7457 157.593,90.2336"/>
</g>
<!-- 64 -->
<g id="node58" class="node"><title>64</title>
<ellipse fill="olivedrab" stroke="black" cx="286.818" cy="59.4242" rx="2.5" ry="2.5"/>
</g>
<!-- 44&#45;&gt;64 -->
<g id="edge58" class="edge"><title>44&#45;&gt;64</title>
<path fill="none" stroke="black" d="M247.164,76.7011C261.101,70.6289 278.006,63.2633 284.299,60.5215"/>
</g>
<!-- 67 -->
<g id="node60" class="node"><title>67</title>
<ellipse fill="olivedrab" stroke="black" cx="173.596" cy="136.064" rx="2.5" ry="2.5"/>
</g>
<!-- 44&#45;&gt;67 -->
<g id="edge59" class="edge"><title>44&#45;&gt;67</title>
<path fill="none" stroke="black" d="M209.952,101.405C197.368,113.402 181.232,128.784 175.624,134.131"/>
</g>
<!-- 46 -->
<g id="node44" class="node"><title>46</title>
<ellipse fill="#1874cd" stroke="black" cx="59.4674" cy="-204.622" rx="2.5" ry="2.5"/>
</g>
<!-- 47&#45;&gt;52 -->
<g id="edge64" class="edge"><title>47&#45;&gt;52</title>
<path fill="none" stroke="black" stroke-dasharray="5,2" d="M-13.0915,-274.606C-17.5525,-282.952 -27.4503,-301.469 -31.5672,-309.171"/>
</g>
<!-- 50 -->
<g id="node48" class="node"><title>50</title>
<ellipse fill="#1874cd" stroke="black" cx="-35.9816" cy="-116.832" rx="2.5" ry="2.5"/>
</g>
<!-- 68 -->
<g id="node61" class="node"><title>68</title>
<ellipse fill="olivedrab" stroke="black" cx="347.735" cy="129.661" rx="2.5" ry="2.5"/>
</g>
<!-- 56&#45;&gt;68 -->
<g id="edge60" class="edge"><title>56&#45;&gt;68</title>
<path fill="none" stroke="black" d="M303.897,135.173C313.729,133.936 330.176,131.869 339.886,130.648"/>
<polygon fill="black" stroke="black" points="339.762,128.9 344.941,130.012 340.199,132.372 339.762,128.9"/>
<text text-anchor="middle" x="345.391" y="143.796" font-family="monospace" font-size="14.00">K251R</text>
</g>
<!-- 69 -->
<g id="node62" class="node"><title>69</title>
<ellipse fill="olivedrab" stroke="black" cx="305.34" cy="187.545" rx="2.5" ry="2.5"/>
</g>
<!-- 56&#45;&gt;69 -->
<g id="edge61" class="edge"><title>56&#45;&gt;69</title>
<path fill="none" stroke="black" d="M297.272,144.217C299.457,155.952 303.418,177.221 304.826,184.784"/>
</g>
<!-- 66 -->
<g id="node59" class="node"><title>66</title>
<ellipse fill="olivedrab" stroke="black" cx="119.239" cy="49.1299" rx="2.5" ry="2.5"/>
</g>
<!-- anon_0_6_0&#45;&gt;6 -->
<g id="edge4" class="edge"><title>anon_0_6_0&#45;&gt;6</title>
<path fill="none" stroke="black" d="M165.991,-170.02C162.556,-174.515 146.791,-195.143 141.474,-202.101"/>
</g>
<!-- anon_1_17_0&#45;&gt;17 -->
<g id="edge20" class="edge"><title>anon_1_17_0&#45;&gt;17</title>
<path fill="none" stroke="black" d="M-30.6513,111.808C-32.7434,116.732 -42.3433,139.325 -45.5815,146.946"/>
</g>
<!-- anon_3_29_0&#45;&gt;29 -->
<g id="edge28" class="edge"><title>anon_3_29_0&#45;&gt;29</title>
<path fill="none" stroke="black" d="M84.451,10.8587C89.7919,12.5918 114.299,20.5441 122.566,23.2266"/>
</g>
<!-- anon_39_46_0&#45;&gt;46 -->
<g id="edge45" class="edge"><title>anon_39_46_0&#45;&gt;46</title>
<path fill="none" stroke="black" d="M17.9818,-208.118C23.4063,-207.661 48.2969,-205.564 56.6928,-204.856"/>
</g>
<!-- anon_39_50_0&#45;&gt;50 -->
<g id="edge48" class="edge"><title>anon_39_50_0&#45;&gt;50</title>
<path fill="none" stroke="black" d="M-34.2094,-158.404C-34.4411,-152.969 -35.5044,-128.026 -35.8631,-119.612"/>
</g>
<!-- anon_42_66_0 -->
<g id="node68" class="node"><title>anon_42_66_0</title>
<ellipse fill="white" stroke="black" cx="80.0862" cy="56.1074" rx="1" ry="1"/>
</g>
<!-- anon_42_66_0&#45;&gt;42 -->
<g id="edge50" class="edge"><title>anon_42_66_0&#45;&gt;42</title>
<path fill="none" stroke="black" d="M78.7749,55.9296C74.0851,55.2936 57.9087,53.0999 48.2062,51.7841"/>
<polygon fill="black" stroke="black" points="47.8817,53.5062 43.1622,51.1001 48.3521,50.038 47.8817,53.5062"/>
<text text-anchor="middle" x="40.1875" y="64.7445" font-family="monospace" font-size="14.00">R254K</text>
</g>
<!-- anon_42_66_0&#45;&gt;66 -->
<g id="edge51" class="edge"><title>anon_42_66_0&#45;&gt;66</title>
<path fill="none" stroke="black" d="M81.3889,55.8753C87.0149,54.8726 109.28,50.9047 116.768,49.5703"/>
</g>
</g>
</svg>
